<?xml version="1.0" encoding="utf-8"?>
<!-- Generator: Adobe Illustrator 21.0.2, SVG Export Plug-In . SVG Version: 6.00 Build 0)  -->
<svg version="1.1" id="Layer_1" xmlns="http://www.w3.org/2000/svg" xmlns:xlink="http://www.w3.org/1999/xlink" x="0px" y="0px"
	 viewBox="0 0 100 100" style="enable-background:new 0 0 100 100;" xml:space="preserve">
<path d="M95,21.5v42c0,3.9-3.1,7-7,7h-3c-1.7,0-3-1.3-3-3s1.3-3,3-3h3c0.6,0,1-0.4,1-1v-42c0-0.6-0.4-1-1-1H28c-0.6,0-1,0.4-1,1v3
	c0,1.7-1.3,3-3,3s-3-1.3-3-3v-3c0-3.9,3.1-7,7-7h60C91.9,14.5,95,17.6,95,21.5z M79,36.5v42c0,3.9-3.1,7-7,7H12c-3.9,0-7-3.1-7-7
	v-42c0-3.9,3.1-7,7-7h60C75.9,29.5,79,32.6,79,36.5z M11,36.5V58l17.7-12c0.5-0.3,1-0.4,1.5-0.3s1,0.4,1.3,0.9l11.2,18l12.1-6.5
	c0.7-0.4,1.6-0.3,2.3,0.3L73,72.5v-36c0-0.6-0.4-1-1-1H12C11.4,35.5,11,35.9,11,36.5z M73,78.5v-0.6L55.5,62.4l-12.5,6.7
	c-0.9,0.5-2.1,0.2-2.6-0.7l-11-17.9L11,62.8v15.7c0,0.6,0.4,1,1,1h60C72.6,79.5,73,79.1,73,78.5z M55.4,48.9c0-3.8,3.1-6.9,6.9-6.9
	s6.9,3.1,6.9,6.9s-3.1,6.9-6.9,6.9S55.4,52.8,55.4,48.9z M59.4,48.9c0,1.6,1.3,2.9,2.9,2.9s2.9-1.3,2.9-2.9c0-1.6-1.3-2.9-2.9-2.9
	S59.4,47.3,59.4,48.9z"/>
</svg>
